<?xml version="1.0" standalone="no"?> <!DOCTYPE svg PUBLIC "-//W3C//DTD SVG 1.0//EN" "http://www.w3.org/TR/2001/REC-SVG-20010904/DTD/svg10.dtd" > <svg xmlns="http://www.w3.org/2000/svg" width="100%" height="100%">
<defs >
<font id="helveticaworld-bold" horiz-adv-x="1183" ><font-face
    font-family="Helvetica World"
    units-per-em="2048"
    panose-1="2 11 8 0 4 0 0 2 0 4"
    ascent="2400"
    descent="-530"
    alphabetic="0" />
<missing-glyph horiz-adv-x="1048" d="M454 239V376H569V239H454ZM460 479L457 514Q457 626 483 679T578 800Q643 865 661 898T680 970Q680 1044 634 1094T525 1145Q460 1145 414 1100T356 951L254 967Q268 1113 343 1180T530 1248Q638 1248 711 1174T785 979Q785
914 759 860T656 733Q580 665 567 626T554 479H460ZM946 102V1367H102V102H946ZM1048 1470V0H0V1470H1048Z" />
<glyph unicode=" " glyph-name="space" horiz-adv-x="550" />
<glyph unicode="!" glyph-name="exclam" horiz-adv-x="681" d="M503 0H204V289H503V0ZM429 408H277L195 1096V1470H511V1096L429 408Z" />
<glyph unicode="&quot;" glyph-name="quotedbl" horiz-adv-x="971" d="M195 1470H396V915H195V1470ZM575 1470H776V915H575V1470Z" />
<glyph unicode="#" glyph-name="numbersign" horiz-adv-x="1139" d="M487 838L453 592H651L686 838H487ZM1018 408H819L762 0H569L627 408H428L371 0H178L236 408H37L61 592H260L295 838H96L121 1022H319L377 1430H569L512 1022H711L768 1430H961L903 1022H1102L1077
838H879L844 592H1042L1018 408Z" />
<glyph unicode="$" glyph-name="dollar" horiz-adv-x="1180" d="M809 1026Q799 1135 759 1186Q722 1234 640 1237V854Q877 784 986 687T1095 406Q1095 219 969 96T640 -35V-236H546V-35Q302 -18 194 97T85 440H354Q359 327 397 265T546 182V609Q116 704 116 1028Q116
1218 232 1332T546 1454V1587H640V1454Q848 1437 952 1332T1073 1026H809ZM640 182Q718 186 769 236T821 383Q821 526 640 581V182ZM546 1237Q469 1232 422 1187T374 1077Q374 1000 414 952T546 880V1237Z" />
<glyph unicode="%" glyph-name="percent" horiz-adv-x="1876" d="M291 1081Q291 1047 304 1018T339 967T390 933T453 920Q486 920 515 932T567 966T602 1017T615 1081Q615 1115 602 1144T567 1196T516 1230T453 1243Q420 1243 391 1231T339 1196T304 1145T291
1081ZM1262 343Q1262 309 1275 280T1310 228T1361 194T1424 181Q1457 181 1486 193T1537 228T1572 279T1585 343Q1585 377 1572 406T1538 458T1487 492T1424 505Q1391 505 1362 493T1310 458T1275 407T1262 343ZM606 -39H455L1270 1454H1422L606 -39ZM1051 343Q1051
421 1080 489T1160 607T1279 687T1424 716Q1500 716 1567 687T1686 607T1766 488T1796 343Q1796 265 1767 197T1686 79T1568 -1T1424 -30Q1347 -30 1279 -1T1161 78T1081 196T1051 343ZM80 1081Q80 1159 109 1227T189 1345T308 1425T453 1454Q529 1454 597 1425T716
1345T796 1226T826 1081Q826 1003 797 936T716 818T597 738T453 709Q376 709 308 737T190 816T110 935T80 1081Z" />
<glyph unicode="&amp;" glyph-name="ampersand" horiz-adv-x="1460" d="M774 1133Q774 1194 739 1223T651 1253Q598 1253 565 1221T532 1135Q532 1060 638 950Q774 1032 774 1133ZM550 643Q455 579 416 529T376 397Q376 325 433 264T593 203Q707 203 821 305L550
643ZM1415 0H1069L968 125Q817 -39 548 -39Q348 -39 219 84T90 379Q90 644 372 807L403 825Q270 976 270 1133Q270 1281 378 1375T646 1470Q806 1470 913 1379T1021 1130Q1021 925 778 780L987 522Q1054 634 1062 764H1316Q1295 498 1148 322L1415 0Z" />
<glyph unicode="&apos;" glyph-name="quotesingle" horiz-adv-x="487" d="M143 1470H344V915H143V1470Z" />
<glyph unicode="(" glyph-name="parenleft" horiz-adv-x="781" d="M480 -426Q120 27 120 535Q120 1043 480 1503H691Q415 1067 415 535Q415 3 691 -426H480Z" />
<glyph unicode=")" glyph-name="parenright" horiz-adv-x="761" d="M70 -426Q346 3 346 535Q346 1067 70 1503H281Q641 1043 641 535Q641 27 281 -426H70Z" />
<glyph unicode="*" glyph-name="asterisk" horiz-adv-x="786" d="M736 1147L521 1081L663 883L534 793L394 979L253 793L124 883L263 1081L50 1147L97 1296L306 1227V1470H480V1227L687 1296L736 1147Z" />
<glyph unicode="+" glyph-name="plus" horiz-adv-x="1200" d="M485 1036H715V633H1116V403H715V0H485V403H84V633H485V1036Z" />
<glyph unicode="," glyph-name="comma" horiz-adv-x="569" d="M438 41Q438 -284 133 -344H131V-236Q295 -191 303 0H131V299H438V41Z" />
<glyph unicode="-" glyph-name="hyphen" horiz-adv-x="682" d="M627 440H55V707H627V440Z" />
<glyph unicode="." glyph-name="period" horiz-adv-x="569" d="M438 0H131V299H438V0Z" />
<glyph unicode="/" glyph-name="slash" horiz-adv-x="625" d="M200 -49H-40L425 1509H665L200 -49Z" />
<glyph unicode="0" glyph-name="zero" horiz-adv-x="1180" d="M380 709Q380 426 423 308T589 190Q711 190 754 308T798 709Q798 1001 754 1113T589 1225Q467 1225 424 1113T380 709ZM86 709Q86 1093 210 1273T589 1454Q845 1454 969 1273T1093 709Q1093 321 969
141T589 -39Q335 -39 211 141T86 709Z" />
<glyph unicode="1" glyph-name="one" horiz-adv-x="1180" d="M161 1202H202Q371 1202 460 1271T559 1454H794V0H507V1001H161V1202Z" />
<glyph unicode="2" glyph-name="two" horiz-adv-x="1180" d="M90 940Q90 1198 219 1326T565 1454Q789 1454 926 1328T1064 995Q1064 869 1006 760T761 522Q605 412 534 357T438 254H1067V0H73Q76 192 157 322T440 599Q675 770 726 842T778 1003Q778 1092 723 1152T572
1212Q477 1212 423 1153T368 940H90Z" />
<glyph unicode="3" glyph-name="three" horiz-adv-x="1180" d="M456 842H501Q636 842 690 888T745 1038Q745 1117 698 1171T563 1225Q467 1225 417 1167T366 987H100Q100 1204 224 1329T581 1454Q778 1454 905 1347T1032 1049Q1032 863 858 772V768Q877 763 913
745T986 687T1050 586T1077 430Q1077 226 937 94T581 -39Q348 -39 212 80T75 446H354Q354 322 409 256T567 190Q663 190 722 254T782 430Q782 541 709 589T489 637H456V842Z" />
<glyph unicode="4" glyph-name="four" horiz-adv-x="1180" d="M649 545Q649 809 655 1169H651L286 545H649ZM1097 322H935V0H649V322H75V569L610 1454H935V545H1097V322Z" />
<glyph unicode="5" glyph-name="five" horiz-adv-x="1180" d="M376 872Q480 952 636 952Q815 952 946 827T1077 483Q1077 261 944 111T548 -39Q344 -39 213 81T75 389H362Q384 190 565 190Q664 190 723 266T782 459Q782 576 726 649T569 723Q430 723 376 618L120
631L221 1430H1019V1188H428L376 872Z" />
<glyph unicode="6" glyph-name="six" horiz-adv-x="1180" d="M798 467Q798 581 738 646T589 711Q491 711 431 645T370 461Q370 334 435 262T598 190Q689 190 743 263T798 467ZM772 1085Q751 1225 604 1225Q381 1225 364 823L368 819Q454 940 648 940Q842 940 963
810T1085 492Q1085 259 955 110T610 -39Q340 -39 212 140T83 692Q83 1087 218 1270T624 1454Q792 1454 910 1368T1056 1085H772Z" />
<glyph unicode="7" glyph-name="seven" horiz-adv-x="1180" d="M1101 1208Q621 684 571 0H276Q336 669 794 1176H75V1430H1101V1208Z" />
<glyph unicode="8" glyph-name="eight" horiz-adv-x="1180" d="M591 864Q680 864 725 919T770 1047Q770 1120 725 1172T592 1225Q505 1225 455 1175T405 1048Q405 972 456 918T591 864ZM798 420Q798 515 744 581T591 647Q493 647 437 587T380 420Q380 314 438
252T593 190Q690 190 744 259T798 420ZM1093 432Q1093 235 958 98T589 -39Q360 -39 223 82T86 417Q86 671 307 772Q131 855 131 1057Q131 1230 255 1342T583 1454Q787 1454 915 1350T1044 1075Q1044 875 876 782Q1093 686 1093 432Z" />
<glyph unicode="9" glyph-name="nine" horiz-adv-x="1180" d="M368 973Q368 834 422 771T583 707Q674 707 734 773T794 950Q794 1078 739 1148T575 1219Q485 1219 427 1158T368 973ZM395 336V334Q407 258 452 224T563 190Q672 190 736 293T802 596L798 600Q712
477 522 477Q331 477 206 602T81 932Q81 1185 216 1319T577 1454Q823 1454 956 1281T1089 707Q1089 333 943 147T561 -39Q365 -39 245 68T110 336H395Z" />
<glyph unicode=":" glyph-name="colon" horiz-adv-x="569" d="M488 0H181V299H488V0ZM488 750H181V1049H488V750Z" />
<glyph unicode=";" glyph-name="semicolon" horiz-adv-x="569" d="M488 41Q488 -284 183 -344H181V-236Q345 -191 353 0H181V299H488V41ZM488 750H181V1049H488V750Z" />
<glyph unicode="&lt;" glyph-name="less" horiz-adv-x="1200" d="M1116 -16L84 426V610L1116 1053V831L381 518L1116 205V-16Z" />
<glyph unicode="=" glyph-name="equal" horiz-adv-x="1200" d="M1116 858V628H84V858H1116ZM1116 409V179H84V409H1116Z" />
<glyph unicode="&gt;" glyph-name="greater" horiz-adv-x="1200" d="M819 518L84 831V1053L1116 610V426L84 -16V205L819 518Z" />
<glyph unicode="?" glyph-name="question" horiz-adv-x="1236" d="M783 0H484V289H783V0ZM495 426Q485 548 519 642T702 842Q828 930 828 1044Q828 1141 774 1194T630 1247Q526 1247 472 1188T409 1012V1010H120Q120 1242 270 1365T631 1489Q856 1489 996 1377T1136
1053Q1136 963 1094 879T888 676Q807 617 785 568T763 426H495Z" />
<glyph unicode="@" glyph-name="at" horiz-adv-x="1911" d="M1145 584Q1145 660 1100 711T967 763Q868 763 811 682T753 489Q753 381 795 339T907 296Q1005 296 1075 384T1145 584ZM1235 925H1415L1296 403Q1283 343 1283 315Q1283 274 1318 274Q1400 274 1472
377T1545 640Q1545 878 1391 1018T986 1159Q717 1159 560 987T402 544Q402 237 581 79T1015 -79Q1256 -79 1445 84H1627Q1386 -243 1002 -243Q666 -243 433 -26T200 548Q200 871 423 1096T990 1322Q1286 1322 1498 1143T1711 690Q1711 419 1553 258T1211 97Q1094
97 1075 218L1071 220Q962 98 844 98Q723 98 628 194T532 477Q532 660 642 808T948 956Q1131 956 1209 823L1235 925Z" />
<glyph unicode="A" glyph-name="A" horiz-adv-x="1447" d="M533 557H908L725 1139H721L533 557ZM349 0H25L549 1470H904L1422 0H1088L994 303H451L349 0Z" />
<glyph unicode="B" glyph-name="B" horiz-adv-x="1444" d="M445 895H805Q910 895 966 938T1022 1059Q1022 1137 971 1177T797 1217H445V895ZM445 254H821Q934 254 995 305T1057 469Q1057 551 998 599T836 647H445V254ZM150 1470H864Q1085 1470 1201 1364T1317
1094Q1317 869 1137 793Q1364 706 1364 436Q1364 348 1331 269T1227 123T1058 28T772 0H150V1470Z" />
<glyph unicode="C" glyph-name="C" horiz-adv-x="1481" d="M1094 989Q1037 1243 768 1243Q601 1243 502 1107T403 729Q403 502 499 365T768 227Q1032 227 1094 504H1401Q1368 278 1203 120T762 -39Q454 -39 272 164T90 733Q90 1082 271 1295T766 1509Q1041 1509
1210 1361T1401 989H1094Z" />
<glyph unicode="D" glyph-name="D" horiz-adv-x="1487" d="M451 254H750Q908 254 996 386T1084 748Q1084 985 1003 1101T756 1217H451V254ZM150 1470H799Q1097 1470 1247 1277T1397 770Q1397 424 1238 212T787 0H150V1470Z" />
<glyph unicode="E" glyph-name="E" horiz-adv-x="1356" d="M1231 1210H451V901H1168V641H451V260H1266V0H150V1470H1231V1210Z" />
<glyph unicode="F" glyph-name="F" horiz-adv-x="1241" d="M457 0H150V1470H1196V1210H457V879H1104V618H457V0Z" />
<glyph unicode="G" glyph-name="G" horiz-adv-x="1600" d="M846 793H1460V0H1255L1225 184Q1055 -39 760 -39Q465 -39 278 171T90 731Q90 1080 283 1294T809 1509Q1094 1509 1264 1366T1454 1014H1148Q1120 1124 1032 1189T825 1255Q628 1255 516 1114T403 728Q403
484 511 353T831 221Q950 221 1049 298T1188 545H846V793Z" />
<glyph unicode="H" glyph-name="H" horiz-adv-x="1488" d="M1338 1470V0H1031V659H457V0H150V1470H457V913H1031V1470H1338Z" />
<glyph unicode="I" glyph-name="I" horiz-adv-x="607" d="M457 0H150V1470H457V0Z" />
<glyph unicode="J" glyph-name="J" horiz-adv-x="1126" d="M986 426Q986 193 868 78T530 -37Q272 -37 156 79T40 454V555H327V525Q327 332 368 272T507 211Q599 211 639 256T679 416V1470H986V426Z" />
<glyph unicode="K" glyph-name="K" horiz-adv-x="1461" d="M457 0H150V1470H457V872L1019 1470H1416L816 868L1451 0H1055L601 645L457 498V0Z" />
<glyph unicode="L" glyph-name="L" horiz-adv-x="1223" d="M457 266H1188V0H150V1470H457V266Z" />
<glyph unicode="M" glyph-name="M" horiz-adv-x="1726" d="M1576 0H1289V993L1293 1229H1285L1010 0H709L441 1229H434L437 993V0H150V1470H599L864 311H870L1131 1470H1576V0Z" />
<glyph unicode="N" glyph-name="N" horiz-adv-x="1498" d="M1062 1470H1348V0H1041L441 1049H437V0H150V1470H474L1058 446H1062V1470Z" />
<glyph unicode="O" glyph-name="O" horiz-adv-x="1583" d="M392 735Q392 479 506 350T795 221Q970 221 1080 354T1191 735Q1191 983 1082 1116T791 1249Q610 1249 501 1117T392 735ZM85 735Q85 1113 282 1311T789 1509Q1099 1509 1298 1314T1498 735Q1498 361
1302 161T792 -39Q493 -39 289 150T85 735Z" />
<glyph unicode="P" glyph-name="P" horiz-adv-x="1353" d="M742 784Q859 784 915 838T971 1007Q971 1122 908 1169T719 1217H457V784H742ZM457 0H150V1470H821Q1031 1470 1154 1344T1278 999Q1278 810 1157 670T809 530H457V0Z" />
<glyph unicode="Q" glyph-name="Q" horiz-adv-x="1583" d="M85 735Q85 1113 282 1311T789 1509Q1099 1509 1298 1314T1498 735Q1498 404 1344 209L1504 59L1343 -106L1170 57Q1010 -39 792 -39Q493 -39 289 150T85 735ZM392 735Q392 479 506 350T795 221Q886 221
960 257L810 399L968 565L1123 418Q1191 541 1191 735Q1191 983 1082 1116T791 1249Q610 1249 501 1117T392 735Z" />
<glyph unicode="R" glyph-name="R" horiz-adv-x="1455" d="M811 823Q932 823 990 869T1049 1024Q1049 1114 995 1165T834 1217H451V823H811ZM150 1470H893Q1120 1470 1238 1349T1356 1055Q1356 799 1129 705Q1234 665 1274 590T1315 317Q1315 121 1329 87T1380
39V0H1041Q1008 99 1008 286Q1008 443 987 488T918 554T768 575H451V0H150V1470Z" />
<glyph unicode="S" glyph-name="S" horiz-adv-x="1373" d="M380 453Q380 344 460 280T691 215Q841 215 919 263T998 406Q998 462 958 503T765 580L515 638Q278 694 193 790T107 1057Q107 1256 248 1382T673 1509Q954 1509 1099 1367T1246 1034H951Q941 1142 867
1198T650 1255Q535 1255 465 1208T394 1079Q394 1023 425 986T525 932L918 835Q1131 783 1212 686T1293 442Q1293 202 1127 82T714 -39Q396 -39 241 96T85 453H380Z" />
<glyph unicode="T" glyph-name="T" horiz-adv-x="1256" d="M781 0H474V1210H30V1470H1226V1210H781V0Z" />
<glyph unicode="U" glyph-name="U" horiz-adv-x="1476" d="M1331 514Q1331 243 1181 102T727 -39Q461 -39 303 96T145 498V1470H459V516Q459 372 530 297T734 221Q868 221 943 291T1018 502V1470H1331V514Z" />
<glyph unicode="V" glyph-name="V" horiz-adv-x="1340" d="M996 1470H1315L815 0H523L27 1470H357L672 356H676L996 1470Z" />
<glyph unicode="W" glyph-name="W" horiz-adv-x="1935" d="M32 1470H359L568 532L593 385H597L621 532L802 1470H1127L1321 537L1347 385H1351L1377 537L1590 1470H1902L1488 0H1193L985 1032L966 1157H962L943 1032L734 0H448L32 1470Z" />
<glyph unicode="X" glyph-name="X" horiz-adv-x="1343" d="M1324 0H950L671 502L374 0H16L491 752L42 1470H409L671 995L939 1470H1294L845 764L1324 0Z" />
<glyph unicode="Y" glyph-name="Y" horiz-adv-x="1307" d="M807 0H500V555L-8 1470H354L659 831L950 1470H1298L807 551V0Z" />
<glyph unicode="Z" glyph-name="Z" horiz-adv-x="1250" d="M1199 0H50V260L810 1210H71V1470H1195V1229L425 260H1199V0Z" />
<glyph unicode="[" glyph-name="bracketleft" horiz-adv-x="679" d="M370 -205H624V-401H120V1479H624V1282H370V-205Z" />
<glyph unicode="\" glyph-name="backslash" horiz-adv-x="625" d="M-40 1509H200L665 -39H425L-40 1509Z" />
<glyph unicode="]" glyph-name="bracketright" horiz-adv-x="679" d="M309 1282H55V1479H559V-401H55V-205H309V1282Z" />
<glyph unicode="^" glyph-name="asciicircum" horiz-adv-x="1196" d="M127 662L496 1430H700L1069 662H844L598 1200L350 662H127Z" />
<glyph unicode="_" glyph-name="underscore" horiz-adv-x="1139" d="M0 -271V-141H1139V-271H0Z" />
<glyph unicode="`" glyph-name="grave" horiz-adv-x="700" d="M-27 1536H288L481 1237H274L-27 1536Z" />
<glyph unicode="a" glyph-name="a" horiz-adv-x="1170" d="M765 528Q712 491 559 469Q431 451 392 412T352 307Q352 242 394 209T494 176Q604 176 684 237T765 391V528ZM1045 213Q1045 138 1059 96T1108 43V0H801Q781 55 773 129Q633 -29 409 -29Q254 -29 160
57T65 289Q65 429 147 520T394 635L662 674Q717 682 741 704T765 762Q765 825 719 857T578 890Q479 890 434 854T377 737H100Q121 936 235 1027T601 1118Q803 1118 924 1037T1045 803V213Z" />
<glyph unicode="b" glyph-name="b" horiz-adv-x="1274" d="M904 537Q904 697 840 783T660 870Q536 870 475 780T414 520Q414 371 482 289T668 207Q772 207 838 295T904 537ZM427 948H431Q537 1118 746 1118Q944 1118 1071 968T1199 557Q1199 296 1078 134T740
-29Q525 -29 425 137H421V0H140V1470H427V948Z" />
<glyph unicode="c" glyph-name="c" horiz-adv-x="1143" d="M1076 397Q1052 206 923 89T578 -29Q334 -29 205 116T75 514Q75 814 211 966T597 1118Q791 1118 926 1012T1078 700H787Q771 791 723 834T597 877Q487 877 429 790T370 561Q370 356 429 282T591 207Q673
207 726 263T785 397H1076Z" />
<glyph unicode="d" glyph-name="d" horiz-adv-x="1273" d="M370 537Q370 393 433 300T605 207Q726 207 792 292T859 520Q859 694 797 782T613 870Q498 870 434 782T370 537ZM1133 0H853V137H849Q750 -29 533 -29Q317 -29 196 132T75 557Q75 816 202 967T527 1118Q737
1118 843 948H847V1470H1133V0Z" />
<glyph unicode="e" glyph-name="e" horiz-adv-x="1174" d="M819 653Q810 757 751 820T598 883Q394 883 365 653H819ZM1102 319Q1052 150 923 61T623 -29Q354 -29 212 119T70 531Q70 795 203 956T602 1118Q840 1118 977 967T1114 518V467H357Q367 334 435 268T620
201Q690 201 741 233T807 319H1102Z" />
<glyph unicode="f" glyph-name="f" horiz-adv-x="676" d="M455 1090H641V885H455V0H168V885H15V1090H168V1178Q168 1338 251 1414T517 1490Q566 1490 635 1485V1251Q604 1254 570 1254Q529 1254 506 1249T472 1230T458 1193T455 1132V1090Z" />
<glyph unicode="g" glyph-name="g" horiz-adv-x="1261" d="M370 539Q370 402 430 319T597 236Q715 236 778 316T841 551Q841 694 774 782T595 870Q496 870 433 787T370 539ZM1126 1090V27Q1126 -220 990 -332T575 -444Q374 -444 241 -357T99 -117H411Q422 -227
613 -227Q839 -227 839 9V154L835 158Q752 -6 544 -6Q331 -6 203 141T75 557Q75 820 202 969T528 1118Q754 1118 847 928H851V1090H1126Z" />
<glyph unicode="h" glyph-name="h" horiz-adv-x="1250" d="M1125 0H838V677Q838 777 793 827T652 877Q545 877 486 806T427 625V0H140V1470H427V951H431Q529 1118 750 1118Q920 1118 1022 1019T1125 754V0Z" />
<glyph unicode="i" glyph-name="i" horiz-adv-x="567" d="M427 1219H140V1485H427V1219ZM427 1090V0H140V1090H427Z" />
<glyph unicode="j" glyph-name="j" horiz-adv-x="567" d="M427 1219H140V1485H427V1219ZM427 -115Q427 -285 358 -361T97 -438H5V-209H62Q105 -209 122 -183T140 -109V1090H427V-115Z" />
<glyph unicode="k" glyph-name="k" horiz-adv-x="1145" d="M427 0H140V1470H427V676L787 1090H1140L755 668L1150 0H806L546 467L427 344V0Z" />
<glyph unicode="l" glyph-name="l" horiz-adv-x="567" d="M427 0H140V1470H427V0Z" />
<glyph unicode="m" glyph-name="m" horiz-adv-x="1826" d="M1701 0H1414V667Q1414 762 1376 819T1253 877Q1168 877 1116 824T1064 664V0H777V680Q777 782 736 829T605 877Q515 877 471 824T427 664V0H140V1090H415V930H419Q515 1118 735 1118Q935 1118 1031 944Q1140
1118 1322 1118Q1490 1118 1595 1023T1701 754V0Z" />
<glyph unicode="n" glyph-name="n" horiz-adv-x="1250" d="M1125 0H838V677Q838 772 795 824T652 877Q549 877 488 810T427 625V0H140V1090H415V930H419Q522 1118 744 1118Q911 1118 1018 1023T1125 754V0Z" />
<glyph unicode="o" glyph-name="o" horiz-adv-x="1258" d="M888 545Q888 701 824 789T629 877Q508 877 439 795T370 545Q370 381 437 297T629 213Q758 213 823 300T888 545ZM1183 545Q1183 278 1030 125T629 -29Q386 -29 231 123T75 545Q75 816 230 967T629 1118Q878
1118 1030 964T1183 545Z" />
<glyph unicode="p" glyph-name="p" horiz-adv-x="1272" d="M414 520Q414 376 480 292T666 207Q776 207 839 301T902 537Q902 699 838 784T658 870Q535 870 475 781T414 520ZM414 932H419Q524 1118 744 1118Q940 1118 1068 969T1197 557Q1197 300 1078 136T738
-29Q523 -29 431 139H427V-424H140V1090H414V932Z" />
<glyph unicode="q" glyph-name="q" horiz-adv-x="1275" d="M370 524Q370 370 432 292T615 213Q727 213 791 300T855 539Q855 699 786 784T609 870Q496 870 433 782T370 524ZM1135 1090V-424H849V135H845Q757 -29 535 -29Q317 -29 196 133T75 522Q75 788 201 953T553
1118Q756 1118 857 928H861V1090H1135Z" />
<glyph unicode="r" glyph-name="r" horiz-adv-x="808" d="M140 1090H415V901H419Q469 1008 540 1063T718 1118Q746 1118 773 1114V823Q753 827 691 827Q557 827 492 763T427 567V0H140V1090Z" />
<glyph unicode="s" glyph-name="s" horiz-adv-x="1138" d="M749 756Q741 827 697 866T557 905Q468 905 426 876T384 803Q384 760 419 737T693 657Q936 600 1002 525T1068 336Q1068 155 941 59T560 -37Q337 -37 211 55T65 344H359Q359 259 413 218T579 176Q673
176 723 204T773 280Q773 328 737 354T489 426Q254 476 178 556T101 750Q101 912 217 1015T560 1118Q782 1118 900 1026T1031 756H749Z" />
<glyph unicode="t" glyph-name="t" horiz-adv-x="688" d="M460 1090H638V885H460V274Q460 231 483 218T556 205Q605 205 638 209V-4Q575 -14 483 -14Q313 -14 243 37T173 223V885H25V1090H173V1384H460V1090Z" />
<glyph unicode="u" glyph-name="u" horiz-adv-x="1256" d="M1116 0H842V154H838Q729 -29 506 -29Q333 -29 234 73T135 373V1090H422V414Q422 310 470 262T608 213Q705 213 767 277T829 461V1090H1116V0Z" />
<glyph unicode="v" glyph-name="v" horiz-adv-x="1132" d="M717 0H416L25 1090H344L569 287H573L805 1090H1110L717 0Z" />
<glyph unicode="w" glyph-name="w" horiz-adv-x="1609" d="M1271 0H976L806 795H802L632 0H337L29 1090H335L505 307H509L662 1090H951L1115 307H1119L1289 1090H1584L1271 0Z" />
<glyph unicode="x" glyph-name="x" horiz-adv-x="1135" d="M1107 0H753L564 328L376 0H30L400 555L44 1090H392L577 772L757 1090H1095L736 555L1107 0Z" />
<glyph unicode="y" glyph-name="y" horiz-adv-x="1143" d="M737 18Q656 -214 615 -291T515 -403T316 -439Q244 -439 186 -432V-205Q217 -209 264 -209Q326 -209 365 -183T432 -47L28 1090H348L581 287H586L809 1090H1112L737 18Z" />
<glyph unicode="z" glyph-name="z" horiz-adv-x="1037" d="M416 236H987V0H45V223L604 860H84V1090H967V854L416 236Z" />
<glyph unicode="{" glyph-name="braceleft" horiz-adv-x="810" d="M730 -401H560Q449 -401 361 -326T273 -121V289Q273 366 214 405T80 444V633Q154 633 213 673T273 788V1198Q273 1330 361 1404T560 1479H730V1298H637Q580 1298 552 1268T523 1173V762Q497 569
289 541V537Q497 506 523 315V-96Q523 -158 551 -189T637 -221H730V-401Z" />
<glyph unicode="|" glyph-name="bar" horiz-adv-x="589" d="M180 1509H409V-39H180V1509Z" />
<glyph unicode="}" glyph-name="braceright" horiz-adv-x="809" d="M80 -221H173Q231 -221 259 -190T287 -96V315Q313 506 521 537V541Q313 569 287 762V1173Q287 1238 259 1268T173 1298H80V1479H250Q361 1479 449 1405T537 1198V788Q537 714 596 674T730 633V444Q656
444 597 405T537 289V-121Q537 -251 449 -326T250 -401H80V-221Z" />
<glyph unicode="~" glyph-name="asciitilde" horiz-adv-x="1200" d="M1045 681L1146 483Q1049 334 859 334Q760 334 601 399Q520 434 469 453T351 473Q227 473 157 355L56 553Q153 702 343 702Q442 702 601 637Q682 602 733 583T851 563Q975 563 1045 681Z" />
</font>
</defs>
</svg>
