<?xml version="1.0" standalone="no"?> <!DOCTYPE svg PUBLIC "-//W3C//DTD SVG 1.0//EN" "http://www.w3.org/TR/2001/REC-SVG-20010904/DTD/svg10.dtd" > <svg xmlns="http://www.w3.org/2000/svg" width="100%" height="100%">
<defs >
<font id="helveticaworld-italic" horiz-adv-x="1117" ><font-face
    font-family="Helvetica World"
    units-per-em="2048"
    panose-1="2 11 5 0 4 0 0 9 0 4"
    ascent="2400"
    descent="-530"
    alphabetic="0" />
<missing-glyph horiz-adv-x="1048" d="M1048 1470V0H0V1470H1048ZM946 102V1367H102V102H946ZM460 479L457 514Q457 626 483 679T578 800Q643 865 661 898T680 970Q680 1044 634 1094T525 1145Q460 1145 414 1100T356 951L254 967Q268 1113 343 1180T530 1248Q638
1248 711 1174T785 979Q785 914 759 860T656 733Q580 665 567 626T554 479H460ZM454 239V376H569V239H454Z" />
<glyph unicode=" " glyph-name="space" horiz-adv-x="500" />
<glyph unicode="!" glyph-name="exclam" horiz-adv-x="569" d="M197 350L283 985L386 1470H585L482 985L298 350H197ZM273 0H74L118 209H317L273 0Z" />
<glyph unicode="&quot;" glyph-name="quotedbl" horiz-adv-x="727" d="M637 1470H786L676 948H527L637 1470ZM345 1470H494L384 948H235L345 1470Z" />
<glyph unicode="#" glyph-name="numbersign" horiz-adv-x="1139" d="M689 0H554L651 430H395L298 0H163L260 430H49L80 559H291L357 850H146L175 979H386L483 1409H621L523 979H777L875 1409H1012L914 979H1125L1096 850H885L817 559H1028L998 430H787L689 0ZM494
850L426 559H682L748 850H494Z" />
<glyph unicode="$" glyph-name="dollar" horiz-adv-x="1139" d="M973 1067Q977 1090 977 1116Q977 1289 780 1302L677 814Q881 764 968 682T1055 458Q1055 231 888 97T496 -39L454 -236H358L400 -39Q219 -23 126 66T32 304Q32 365 49 436H229Q216 381 216 329Q216
141 433 114L548 656Q197 723 197 990Q197 1191 347 1323T717 1456L745 1587H841L813 1456Q1155 1416 1155 1149Q1155 1112 1147 1067H973ZM528 112Q659 112 759 201T859 425Q859 585 639 634L528 112ZM685 1304H683Q563 1304 474 1224T385 1019Q385 874 585 835L685
1304Z" />
<glyph unicode="%" glyph-name="percent" horiz-adv-x="1820" d="M488 727Q355 727 273 805T190 1002Q190 1176 311 1299T613 1423Q737 1423 821 1347T906 1150Q906 980 782 854T488 727ZM1291 -14Q1158 -14 1076 64T993 261Q993 435 1114 558T1416 682Q1540 682
1624 606T1709 409Q1709 239 1585 113T1291 -14ZM446 -39H326L1448 1440H1571L446 -39ZM759 1116Q759 1189 710 1234T585 1280Q477 1280 407 1205T336 1034Q336 961 385 916T511 870Q610 870 684 946T759 1116ZM1562 375Q1562 448 1513 493T1388 539Q1280 539 1210
464T1139 293Q1139 220 1188 175T1314 129Q1413 129 1487 205T1562 375Z" />
<glyph unicode="&amp;" glyph-name="ampersand" horiz-adv-x="1341" d="M1201 0H972L873 163Q783 71 673 20T409 -31Q241 -31 142 54T42 299Q42 620 481 817Q386 961 386 1074Q386 1245 509 1357T798 1470Q929 1470 1008 1402T1087 1219Q1087 1082 993 977T726
782L926 463Q998 567 1040 692H1210Q1143 489 1007 313L1201 0ZM555 694Q228 544 228 329Q228 238 289 182T447 125Q635 125 800 289L555 694ZM657 899Q791 971 847 1039T903 1190Q903 1253 869 1284T778 1315Q685 1315 626 1258T567 1115Q567 1011 657 899Z" />
<glyph unicode="&apos;" glyph-name="quotesingle" horiz-adv-x="391" d="M323 1470H472L362 948H213L323 1470Z" />
<glyph unicode="(" glyph-name="parenleft" horiz-adv-x="682" d="M819 1501Q296 860 296 177Q296 -67 412 -424H292Q111 -46 111 235Q111 876 694 1501H819Z" />
<glyph unicode=")" glyph-name="parenright" horiz-adv-x="682" d="M-129 -424Q394 217 394 900Q394 1144 278 1501H398Q579 1123 579 842Q579 201 -4 -424H-129Z" />
<glyph unicode="*" glyph-name="asterisk" horiz-adv-x="797" d="M292 1323L491 1245L538 1470H661L614 1245L845 1323L862 1210L627 1141L723 952L608 883L515 1075L342 883L256 952L434 1141L227 1210L292 1323Z" />
<glyph unicode="+" glyph-name="plus" horiz-adv-x="1200" d="M526 1034H676V592H1118V442H676V0H526V442H82V592H526V1034Z" />
<glyph unicode="," glyph-name="comma" horiz-adv-x="569" d="M114 217H327L284 16Q252 -136 172 -213Q91 -291 4 -301L24 -207Q136 -194 177 0H68L114 217Z" />
<glyph unicode="-" glyph-name="hyphen" horiz-adv-x="682" d="M583 475H81L120 659H622L583 475Z" />
<glyph unicode="." glyph-name="period" horiz-adv-x="569" d="M281 0H68L114 217H327L281 0Z" />
<glyph unicode="/" glyph-name="slash" horiz-adv-x="569" d="M-16 -39H-153L680 1509H815L-16 -39Z" />
<glyph unicode="0" glyph-name="zero" horiz-adv-x="1139" d="M721 1278Q513 1278 393 1018T273 421Q273 283 325 203T496 123Q704 123 824 383T944 980Q944 1118 892 1198T721 1278ZM735 1440Q932 1440 1034 1318T1136 989Q1136 590 965 276T482 -39Q285 -39
183 83T81 412Q81 811 252 1125T735 1440Z" />
<glyph unicode="1" glyph-name="one" horiz-adv-x="1139" d="M625 0H433L650 1022H314L345 1165Q520 1172 616 1221T787 1440H931L625 0Z" />
<glyph unicode="2" glyph-name="two" horiz-adv-x="1139" d="M178 924Q280 1440 754 1440Q937 1440 1045 1344T1153 1090Q1153 938 1068 814T765 582L489 446Q252 329 188 170H964L928 0H-54Q26 388 399 581L686 723Q836 799 897 880T959 1058Q959 1161 897 1219T723
1278Q437 1278 358 924H178Z" />
<glyph unicode="3" glyph-name="three" horiz-adv-x="1139" d="M523 819Q569 815 616 815Q760 815 853 891T946 1088Q946 1175 890 1226T723 1278Q434 1278 377 969H200Q286 1440 745 1440Q926 1440 1032 1354T1138 1120Q1138 872 881 757V753Q1061 689 1061 482Q1061
252 894 107T470 -39Q270 -39 155 60T39 318Q39 375 54 440H239Q227 389 227 346Q227 241 294 182T491 123Q656 123 758 214T860 460Q860 565 794 615T573 666Q536 666 490 664L523 819Z" />
<glyph unicode="4" glyph-name="four" horiz-adv-x="1139" d="M824 350L750 0H570L644 350H15L53 526L897 1440H1056L858 506H1069L1035 350H824ZM221 506H678L817 1165H813L221 506Z" />
<glyph unicode="5" glyph-name="five" horiz-adv-x="1139" d="M1125 1232H514L369 837Q503 926 642 926Q828 926 941 821T1054 546Q1054 315 895 138T442 -39Q254 -39 142 51T30 294Q30 326 34 357H218Q217 339 217 326Q217 224 280 171T460 117Q646 117 750 237T855
501Q855 619 785 692T591 765Q421 765 297 628H138L413 1408H583H1162L1125 1232Z" />
<glyph unicode="6" glyph-name="six" horiz-adv-x="1139" d="M969 1057Q971 1173 922 1225T768 1278Q602 1278 476 1113T307 746L311 742Q461 918 682 918Q845 918 954 818T1064 561Q1064 313 896 138T486 -38Q291 -38 184 83T77 413Q77 802 275 1121T791 1440Q954
1440 1052 1352T1150 1122Q1150 1094 1145 1057H969ZM869 531Q869 636 807 696T635 756Q476 756 372 638T268 360Q268 254 331 189T508 123Q658 123 763 246T869 531Z" />
<glyph unicode="7" glyph-name="seven" horiz-adv-x="1139" d="M265 1409H1260L1227 1251Q636 724 374 0H171Q380 601 1014 1233H228L265 1409Z" />
<glyph unicode="8" glyph-name="eight" horiz-adv-x="1139" d="M874 761Q1046 679 1046 472Q1046 259 885 110T473 -39Q292 -39 167 57T41 323Q41 474 128 590T376 763Q229 844 229 1008Q229 1189 377 1314T741 1440Q916 1440 1025 1354T1134 1120Q1134 890 874
761ZM491 123Q650 123 750 219T850 453Q850 558 783 617T607 676Q461 676 350 586T239 360Q239 250 305 187T491 123ZM719 1278Q590 1278 506 1205T421 1024Q421 936 484 884T635 831Q751 831 846 905T942 1091Q942 1182 882 1230T719 1278Z" />
<glyph unicode="9" glyph-name="nine" horiz-adv-x="1139" d="M241 345Q239 323 239 311Q239 207 291 160T439 112Q588 112 704 241T897 649L893 653Q745 481 528 481Q369 481 264 583T159 841Q159 1084 330 1262T737 1440Q930 1440 1032 1326T1134 1009Q1134
656 944 309T428 -38Q257 -38 158 47T58 277Q58 310 63 345H241ZM945 1042Q945 1147 884 1212T715 1278Q567 1278 459 1156T350 875Q350 769 414 706T588 643Q737 643 841 761T945 1042Z" />
<glyph unicode=":" glyph-name="colon" horiz-adv-x="569" d="M461 840H248L294 1057H507L461 840ZM281 0H68L114 217H327L281 0Z" />
<glyph unicode=";" glyph-name="semicolon" horiz-adv-x="569" d="M114 217H327L284 16Q252 -136 172 -213Q91 -291 4 -301L24 -207Q136 -194 177 0H68L114 217ZM461 840H248L294 1057H507L461 840Z" />
<glyph unicode="&lt;" glyph-name="less" horiz-adv-x="1200" d="M1118 23L82 446V590L1118 1014V850L283 518L1118 186V23Z" />
<glyph unicode="=" glyph-name="equal" horiz-adv-x="1200" d="M1118 649H82V799H1118V649ZM1118 236H82V386H1118V236Z" />
<glyph unicode="&gt;" glyph-name="greater" horiz-adv-x="1200" d="M82 186L917 518L82 850V1014L1118 590V446L82 23V186Z" />
<glyph unicode="?" glyph-name="question" horiz-adv-x="1139" d="M224 1010Q258 1237 403 1363T767 1489Q925 1489 1030 1399T1136 1166Q1136 1069 1093 984T864 750Q710 625 671 560T605 375H427Q457 512 503 596T729 825Q876 944 910 1001T945 1141Q945 1229
890 1281T743 1333Q596 1333 512 1251T404 1010H224ZM541 0H343L387 209H585L541 0Z" />
<glyph unicode="@" glyph-name="at" horiz-adv-x="1777" d="M1205 949H1344Q1317 852 1239 588T1160 276Q1160 222 1203 222Q1307 222 1400 364T1494 664Q1494 891 1332 1041T922 1192Q652 1192 476 1006T300 533Q300 238 477 70T936 -99Q1213 -99 1421 114H1558Q1323
-226 932 -226Q597 -226 374 -27T150 522Q150 861 370 1090T922 1319Q1219 1319 1423 1134T1627 680Q1627 437 1464 263T1135 89Q1022 89 1006 215L1002 216Q876 89 753 89Q631 89 543 182T455 416Q455 641 593 811T928 981Q1093 981 1164 822L1205 949ZM1100 646Q1100
719 1051 776T932 834Q807 834 715 706T623 435Q623 342 672 289T795 236Q913 236 1006 370T1100 646Z" />
<glyph unicode="A" glyph-name="A" horiz-adv-x="1365" d="M364 428L119 0H-85L780 1470H1005L1225 0H1008L954 428H364ZM919 604L840 1251H836L463 604H919Z" />
<glyph unicode="B" glyph-name="B" horiz-adv-x="1377" d="M367 1470H565H994Q1172 1470 1266 1395T1361 1175Q1361 917 1090 793Q1290 723 1290 521Q1290 297 1114 149T677 0H249H55L367 1470ZM289 170H691Q863 170 974 256T1086 492Q1086 586 1018 636T788 686H399L289
170ZM433 848H770Q960 848 1056 919T1153 1135Q1153 1216 1095 1258T888 1300H529L433 848Z" />
<glyph unicode="C" glyph-name="C" horiz-adv-x="1480" d="M1292 1028Q1293 1176 1200 1254T948 1333Q668 1333 493 1091T317 544Q317 347 410 242T676 137Q858 137 993 241T1207 541H1400Q1290 238 1091 100T638 -39Q391 -39 250 113T109 523Q109 921 352 1215T968
1509Q1194 1509 1340 1393T1486 1072Q1486 1055 1484 1028H1292Z" />
<glyph unicode="D" glyph-name="D" horiz-adv-x="1474" d="M367 1470H566H943Q1190 1470 1322 1335T1454 961Q1454 577 1226 289T653 0H253H55L367 1470ZM290 170H665Q916 170 1080 399T1244 927Q1244 1110 1156 1205T900 1300H530L290 170Z" />
<glyph unicode="E" glyph-name="E" horiz-adv-x="1331" d="M1141 0H254H55L367 1470H565H1438L1401 1294H529L433 844H1238L1201 668H396L291 176H1178L1141 0Z" />
<glyph unicode="F" glyph-name="F" horiz-adv-x="1224" d="M254 0H55L367 1470H565H1385L1348 1294H529L433 844H1154L1117 668H396L254 0Z" />
<glyph unicode="G" glyph-name="G" horiz-adv-x="1579" d="M846 786H1304H1491L1324 0H1195L1188 190Q968 -39 658 -39Q401 -39 256 111T110 526Q110 910 358 1209T976 1509Q1211 1509 1365 1390T1519 1066Q1519 1048 1517 1024H1325Q1320 1178 1218 1255T948
1333Q675 1333 495 1088T315 536Q315 346 412 239T693 131Q909 131 1060 251T1268 616H810L846 786Z" />
<glyph unicode="H" glyph-name="H" horiz-adv-x="1495" d="M1220 0H1021L1167 686H399L253 0H55L367 1470H565L436 862H1204L1333 1470H1532L1220 0Z" />
<glyph unicode="I" glyph-name="I" horiz-adv-x="529" d="M254 0H55L367 1470H566L254 0Z" />
<glyph unicode="J" glyph-name="J" horiz-adv-x="1046" d="M232 474L210 372Q200 326 200 287Q200 204 247 168T373 132Q504 132 574 195T670 386L901 1471H1100L872 398Q827 184 697 73T356 -38Q193 -38 99 37T5 239Q5 285 15 329L46 474H232Z" />
<glyph unicode="K" glyph-name="K" horiz-adv-x="1377" d="M253 0H55L367 1470H565L414 758L1278 1470H1552L814 877L1257 0H999L642 737L363 516L253 0Z" />
<glyph unicode="L" glyph-name="L" horiz-adv-x="1139" d="M290 176H1036L999 0H250H55L367 1470H565L290 176Z" />
<glyph unicode="M" glyph-name="M" horiz-adv-x="1739" d="M1271 0L1455 868Q1477 974 1538 1235H1532L857 0H661L511 1233H505Q453 972 431 868L247 0H55L367 1470H559H652L806 227H812L1492 1470H1584H1776L1464 0H1271Z" />
<glyph unicode="N" glyph-name="N" horiz-adv-x="1497" d="M1341 1470H1534L1222 0H999L504 1188H500L247 0H55L367 1470H602L1085 283H1089L1341 1470Z" />
<glyph unicode="O" glyph-name="O" horiz-adv-x="1593" d="M959 1333Q685 1333 499 1098T312 574Q312 378 423 258T727 138Q1001 138 1187 373T1374 897Q1374 1093 1263 1213T959 1333ZM1583 923Q1583 546 1333 254T702 -38Q432 -38 268 120T103 548Q103 925 353
1217T984 1509Q1254 1509 1418 1351T1583 923Z" />
<glyph unicode="P" glyph-name="P" horiz-adv-x="1323" d="M254 0H55L367 1470H568H1009Q1187 1470 1288 1386T1389 1149Q1389 930 1234 776T835 621H386L254 0ZM422 791H796Q977 791 1077 873T1178 1119Q1178 1212 1117 1256T933 1300H530L422 791Z" />
<glyph unicode="Q" glyph-name="Q" horiz-adv-x="1593" d="M1104 287Q1374 547 1374 897Q1374 1093 1266 1213T964 1333Q690 1333 501 1098T312 574Q312 378 420 258T722 138Q847 138 955 187L826 313L954 436L1104 287ZM1267 -115L1089 57Q914 -38 697 -38Q427
-38 265 120T103 548Q103 925 356 1217T989 1509Q1259 1509 1421 1351T1583 923Q1583 473 1235 158L1392 4L1267 -115Z" />
<glyph unicode="R" glyph-name="R" horiz-adv-x="1463" d="M254 0H55L367 1470H569H1027Q1252 1470 1355 1392T1458 1161Q1458 879 1167 727Q1293 674 1293 541Q1293 518 1291 494T1285 446L1239 173Q1233 137 1233 119Q1233 91 1241 77Q1255 50 1285 33L1278
0H1033Q1030 22 1030 54Q1030 87 1040 167Q1055 284 1076 378Q1087 428 1087 465Q1087 542 1037 586T868 631H388L254 0ZM424 801H875Q1049 801 1148 890T1247 1125Q1247 1210 1193 1255T1025 1300H530L424 801Z" />
<glyph unicode="S" glyph-name="S" horiz-adv-x="1355" d="M1142 1040Q1149 1072 1149 1107Q1149 1216 1061 1278T845 1340Q683 1340 565 1261T447 1050Q447 985 482 946T586 890L941 804Q1084 769 1165 690T1247 487Q1247 241 1056 101T586 -39Q338 -39 199 61T60
337Q60 399 80 475H268Q257 426 257 386Q257 265 342 199T591 132Q800 132 921 210T1043 434Q1043 501 1001 551T850 627L524 706Q369 744 307 817T244 998Q244 1228 429 1369T862 1510Q1087 1510 1215 1413T1343 1149Q1343 1098 1330 1040H1142Z" />
<glyph unicode="T" glyph-name="T" horiz-adv-x="1244" d="M687 1294H190L227 1470H725H924H1421L1384 1294H886L611 0H412L687 1294Z" />
<glyph unicode="U" glyph-name="U" horiz-adv-x="1467" d="M1514 1470L1312 516Q1256 252 1065 107T601 -39Q394 -39 265 68T135 361Q135 422 149 489L357 1470H555L359 545Q344 475 344 417Q344 285 423 211T638 137Q829 137 953 243T1118 541L1315 1470H1514Z" />
<glyph unicode="V" glyph-name="V" horiz-adv-x="1343" d="M1293 1470H1516L667 0H457L232 1470H453L607 217H611L1293 1470Z" />
<glyph unicode="W" glyph-name="W" horiz-adv-x="1952" d="M526 0H317L246 1470H461L481 274H485L1069 1470H1286L1362 274H1366L1894 1470H2114L1414 0H1206L1129 1219H1125L526 0Z" />
<glyph unicode="X" glyph-name="X" horiz-adv-x="1353" d="M1207 0H966L694 604L164 0H-81L608 757L264 1470H509L767 907L1254 1470H1497L848 751L1207 0Z" />
<glyph unicode="Y" glyph-name="Y" horiz-adv-x="1328" d="M653 0H455L581 592L212 1470H443L715 764L1287 1470H1520L779 592L653 0Z" />
<glyph unicode="Z" glyph-name="Z" horiz-adv-x="1272" d="M1102 0H-55L-20 166L1118 1294H288L325 1470H1414L1378 1298L237 176H1139L1102 0Z" />
<glyph unicode="[" glyph-name="bracketleft" horiz-adv-x="569" d="M127 -256H348L317 -401H95H-66L333 1479H494H716L685 1333H464L127 -256Z" />
<glyph unicode="\" glyph-name="backslash" horiz-adv-x="569" d="M-35 1509H100L604 -39H467L-35 1509Z" />
<glyph unicode="]" glyph-name="bracketright" horiz-adv-x="569" d="M452 1333H230L261 1479H483H644L245 -401H84H-138L-107 -256H115L452 1333Z" />
<glyph unicode="^" glyph-name="asciicircum" horiz-adv-x="961" d="M831 541L481 1245L131 541H-29L408 1409H555L989 541H831Z" />
<glyph unicode="_" glyph-name="underscore" horiz-adv-x="1139" d="M0 -251V-151H1139V-251H0Z" />
<glyph unicode="`" glyph-name="grave" horiz-adv-x="680" d="M276 1503H490L576 1214H439L276 1503Z" />
<glyph unicode="a" glyph-name="a" horiz-adv-x="1126" d="M176 745Q217 918 341 1010T679 1102Q828 1102 932 1040T1036 867Q1036 836 1029 803L898 186Q895 174 895 165Q895 123 943 123Q966 123 1004 131L976 0Q919 -20 869 -20Q714 -20 714 99Q714 115 718
143Q557 -31 302 -31Q173 -31 95 34T16 226Q16 370 118 480T411 613L704 647Q795 657 823 709T852 816Q852 883 800 917T651 952Q401 952 344 745H176ZM793 547Q752 510 482 479Q345 463 278 407T211 248Q211 183 252 151T367 119Q501 119 617 191T756 371L793
547Z" />
<glyph unicode="b" glyph-name="b" horiz-adv-x="1157" d="M25 0L337 1470H517L404 936H408Q558 1102 748 1102Q913 1102 1008 995T1104 714Q1104 436 933 203T502 -31Q305 -31 228 138H224L195 0H25ZM913 694Q913 812 857 876T695 940Q513 940 402 761T290 378Q290
262 351 194T515 125Q688 125 800 302T913 694Z" />
<glyph unicode="c" glyph-name="c" horiz-adv-x="1050" d="M852 711V732Q853 839 798 889T646 940Q472 940 360 769T247 377Q247 257 303 191T460 125Q570 125 653 194T783 379H960Q888 169 750 69T438 -31Q265 -31 158 76T50 361Q50 656 232 879T691 1102Q838
1102 935 1016T1033 786Q1033 753 1028 711H852Z" />
<glyph unicode="d" glyph-name="d" horiz-adv-x="1167" d="M922 0H752L783 147H779Q634 -31 432 -31Q262 -31 167 83T71 385Q71 678 237 890T645 1102Q850 1102 934 920L940 929L1054 1470H1234L922 0ZM254 392Q254 275 309 200T469 125Q653 125 759 288T865 669Q865
810 810 875T651 941Q469 941 362 776T254 392Z" />
<glyph unicode="e" glyph-name="e" horiz-adv-x="1135" d="M1005 336Q939 167 798 68T462 -32Q277 -32 170 73T62 356Q62 645 242 873T702 1102Q880 1102 977 999T1075 697Q1075 593 1048 477H265Q252 429 252 371Q252 255 312 190T490 125Q603 125 694 182T822
336H1005ZM892 621Q899 670 899 704Q899 821 840 880T669 940Q542 940 444 858T296 621H892Z" />
<glyph unicode="f" glyph-name="f" horiz-adv-x="568" d="M438 922L242 0H62L258 922H111L143 1071H290L329 1255Q354 1376 439 1433T658 1491Q698 1491 739 1487L705 1326Q672 1330 631 1330Q577 1330 546 1305T501 1216L470 1071H651L619 922H438Z" />
<glyph unicode="g" glyph-name="g" horiz-adv-x="1145" d="M1138 1071L924 62Q868 -197 735 -324T359 -452Q177 -452 77 -380T-24 -165Q-24 -149 -22 -128H151Q152 -214 204 -258T362 -302Q524 -302 612 -222T739 43L756 121H752Q622 -31 437 -31Q265 -31 167
83T69 384Q69 676 233 889T640 1102Q834 1102 932 918H936L968 1071H1138ZM653 940Q460 940 356 774T252 392Q252 267 310 196T469 125Q657 125 760 290T863 677Q863 807 810 873T653 940Z" />
<glyph unicode="h" glyph-name="h" horiz-adv-x="1130" d="M898 0H717L866 700Q877 755 877 797Q877 867 835 903T718 940Q572 940 469 848T329 584L205 0H25L337 1470H517L402 928H406Q567 1102 773 1102Q904 1102 984 1032T1065 839Q1065 787 1053 729L898 0Z" />
<glyph unicode="i" glyph-name="i" horiz-adv-x="450" d="M205 0H25L253 1071H433L205 0ZM294 1266L337 1470H517L474 1266H294Z" />
<glyph unicode="j" glyph-name="j" horiz-adv-x="450" d="M433 1071L171 -158Q139 -311 55 -370T-160 -430Q-196 -430 -235 -424L-202 -268H-155Q-78 -268 -51 -246T-4 -137L253 1071H433ZM474 1266H294L337 1470H517L474 1266Z" />
<glyph unicode="k" glyph-name="k" horiz-adv-x="1024" d="M698 0L466 536L280 383L199 0H25L337 1470H511L330 618L878 1071H1117L617 660L914 0H698Z" />
<glyph unicode="l" glyph-name="l" horiz-adv-x="450" d="M205 0H25L337 1470H517L205 0Z" />
<glyph unicode="m" glyph-name="m" horiz-adv-x="1699" d="M253 1071H423L391 920H395Q557 1102 761 1102Q955 1102 1004 928Q1172 1102 1368 1102Q1487 1102 1561 1032T1636 843Q1636 794 1625 741L1467 0H1287L1434 692Q1445 743 1445 788Q1445 859 1409 899T1301
940Q1189 940 1095 857T975 653L836 0H656L814 741Q821 775 821 803Q821 869 786 904T686 940Q547 940 453 836T329 584L205 0H25L253 1071Z" />
<glyph unicode="n" glyph-name="n" horiz-adv-x="1130" d="M898 0H717L857 659Q872 729 872 779Q872 859 829 899T708 940Q563 940 464 845T329 584L205 0H25L253 1071H423L391 920H395Q559 1102 773 1102Q908 1102 986 1032T1065 836Q1065 788 1053 729L898 0Z" />
<glyph unicode="o" glyph-name="o" horiz-adv-x="1145" d="M669 945Q488 945 369 780T250 399Q250 282 312 204T483 126Q664 126 783 291T902 672Q902 789 840 867T669 945ZM699 1101Q883 1101 986 986T1090 689Q1090 411 912 191T453 -30Q269 -30 166 85T62 382Q62
660 240 880T699 1101Z" />
<glyph unicode="p" glyph-name="p" horiz-adv-x="1157" d="M253 1071H423L391 920H395Q545 1102 749 1102Q912 1102 1008 993T1104 710Q1104 430 930 200T502 -31Q320 -31 235 122H231L115 -424H-65L253 1071ZM520 125Q691 125 802 300T913 692Q913 812 858 876T692
940Q508 940 399 758T289 383Q289 266 350 196T520 125Z" />
<glyph unicode="q" glyph-name="q" horiz-adv-x="1157" d="M822 -424H641L755 113H751Q609 -31 434 -31Q264 -31 168 84T71 396Q71 673 233 887T642 1102Q853 1102 934 920H938L970 1071H1140L822 -424ZM479 125Q654 125 760 283T866 662Q866 800 813 870T647
940Q471 940 363 777T255 402Q255 273 310 199T479 125Z" />
<glyph unicode="r" glyph-name="r" horiz-adv-x="662" d="M205 0H25L253 1071H423L385 893H389Q550 1102 734 1102Q763 1102 780 1096L740 907Q707 909 672 909Q552 909 457 826T337 623L205 0Z" />
<glyph unicode="s" glyph-name="s" horiz-adv-x="1024" d="M797 766Q801 786 801 808Q801 875 748 910T589 946Q484 946 410 899T335 777Q335 726 365 700T450 660L659 606Q793 572 852 511T911 356Q911 178 766 74T414 -30Q232 -30 124 44T15 252Q15 299 28 344H201Q196
316 196 293Q196 216 258 171T436 126Q562 126 640 170T718 305Q718 358 684 390T578 442L342 503Q253 526 201 584T149 731Q149 898 286 1000T626 1102Q780 1102 878 1030T977 835Q977 800 968 766H797Z" />
<glyph unicode="t" glyph-name="t" horiz-adv-x="568" d="M438 922L290 225Q287 211 287 199Q287 170 307 156T375 141H444L414 0Q329 -14 275 -14Q185 -14 142 22T98 131Q98 166 108 215L258 922H113L145 1071H290L353 1370H533L470 1071H642L610 922H438Z" />
<glyph unicode="u" glyph-name="u" horiz-adv-x="1122" d="M707 0L740 156L737 160Q593 -31 355 -31Q224 -31 147 36T69 218Q69 253 79 301L243 1071H423L272 360Q262 311 262 275Q262 198 307 162T425 125Q563 125 662 218T799 481L925 1071H1105L877 0H707Z" />
<glyph unicode="v" glyph-name="v" horiz-adv-x="1015" d="M916 1071H1122L487 0H294L130 1071H337L431 199H435L916 1071Z" />
<glyph unicode="w" glyph-name="w" horiz-adv-x="1483" d="M417 0H231L148 1071H342L370 229H374L755 1071H956L991 229H995L1384 1071H1571L1034 0H847L801 829H797L417 0Z" />
<glyph unicode="x" glyph-name="x" horiz-adv-x="1023" d="M893 0H678L482 402L139 0H-88L408 555L158 1071H374L556 694L885 1071H1106L628 545L893 0Z" />
<glyph unicode="y" glyph-name="y" horiz-adv-x="1016" d="M914 1071H1114L447 -87Q312 -321 229 -379T42 -438Q-24 -438 -84 -422L-49 -261Q14 -277 60 -277Q113 -277 154 -243T260 -95L299 -30L136 1071H336L439 199H443L914 1071Z" />
<glyph unicode="z" glyph-name="z" horiz-adv-x="1008" d="M220 150H870L838 0H-60L-30 141L774 922H186L218 1071H1047L1015 924L220 150Z" />
<glyph unicode="{" glyph-name="braceleft" horiz-adv-x="684" d="M104 602Q172 602 236 675T325 862L400 1214Q425 1331 501 1405T665 1479H802L774 1346H684Q633 1346 602 1301T554 1178L482 839Q434 613 236 536V532Q364 477 364 327Q364 282 354 236L283 -100Q278
-123 276 -142T273 -179Q273 -268 341 -268H431L403 -401H276Q191 -401 148 -349T104 -214Q104 -178 113 -137L187 213Q198 266 198 307Q198 382 169 430T78 479L104 602Z" />
<glyph unicode="|" glyph-name="bar" horiz-adv-x="532" d="M193 1509H342V-39H193V1509Z" />
<glyph unicode="}" glyph-name="braceright" horiz-adv-x="684" d="M589 476Q521 476 457 403T368 216L293 -136Q268 -253 192 -327T28 -401H-109L-81 -268H9Q60 -268 91 -223T139 -100L211 239Q259 465 457 542V546Q329 601 329 751Q329 796 339 842L410 1178Q415
1201 417 1220T420 1257Q420 1346 352 1346H262L290 1479H417Q502 1479 545 1427T589 1292Q589 1256 580 1215L506 865Q495 812 495 771Q495 696 524 648T615 599L589 476Z" />
<glyph unicode="~" glyph-name="asciitilde" horiz-adv-x="1200" d="M1145 544Q1047 360 852 360Q753 360 601 428Q515 467 461 488T337 509Q209 509 137 356L54 474Q153 658 347 658Q444 658 598 590Q680 552 734 531T862 509Q988 509 1062 662L1145 544Z" />
</font>
</defs>
</svg>
